<svg xmlns="http://www.w3.org/2000/svg" width="66" height="66" viewBox="0 0 66 66" fill="none">
<circle cx="33" cy="33" r="31.5" stroke="#FFBB38" stroke-width="3"/>
<path d="M32.4872 13.0848C32.1977 13.2178 31.9395 13.4917 31.83 13.7811C31.783 13.9063 31.7439 14.5244 31.7439 15.166C31.7439 16.496 31.8222 16.3708 30.9224 16.4569C30.1322 16.5351 28.7083 16.8481 27.7851 17.161C23.4898 18.5928 19.9847 21.6519 18.0131 25.689C17.2229 27.3163 16.5892 29.4053 16.4483 30.8918C16.3623 31.8385 16.5109 31.7368 15.0479 31.7681C13.6396 31.7916 13.5457 31.8229 13.1702 32.3314C12.9433 32.6365 12.9433 33.372 13.1702 33.6771C13.5457 34.1857 13.6396 34.217 15.0479 34.2404C16.5109 34.2717 16.3623 34.17 16.4483 35.1167C16.5892 36.6032 17.2229 38.6922 18.0131 40.3195C19.9925 44.3645 23.482 47.4079 27.8164 48.8632C28.7083 49.1605 30.1087 49.4734 30.9302 49.5517C31.8065 49.6377 31.7283 49.5047 31.7596 50.9599C31.783 52.3526 31.8143 52.4543 32.3229 52.8298C32.628 53.0567 33.3635 53.0567 33.6686 52.8298C34.1771 52.4543 34.2084 52.3526 34.2319 50.9756C34.2475 50.115 34.2867 49.6925 34.3493 49.6534C34.404 49.6221 34.5761 49.5908 34.7326 49.5908C35.2959 49.5908 37.1658 49.1918 38.1829 48.8553C41.9618 47.6113 45.1852 45.0451 47.282 41.6105C48.4556 39.6858 49.3397 37.1196 49.5431 35.0698C49.6292 34.1935 49.4962 34.2717 50.9514 34.2404C52.344 34.217 52.4458 34.1857 52.8213 33.6771C53.0482 33.372 53.0482 32.6365 52.8213 32.3314C52.4458 31.8229 52.344 31.7916 50.9514 31.7681C49.4962 31.7368 49.6292 31.815 49.5431 30.9388C49.4571 30.0703 49.1363 28.6699 48.7998 27.6762C47.3603 23.4514 44.309 19.9776 40.3032 18.0138C38.7071 17.2314 36.5869 16.5977 35.069 16.4569C34.1693 16.363 34.2632 16.5195 34.2319 15.0564C34.2084 13.656 34.1771 13.5542 33.6842 13.1865C33.4182 12.9909 32.8001 12.9362 32.4872 13.0848ZM31.916 20.6974C32.2368 21.2685 33.074 21.4798 33.6529 21.1199C34.0989 20.8382 34.2475 20.4705 34.2475 19.6021V18.8744L34.8109 18.937C37.0641 19.2109 39.4347 20.1576 41.3672 21.5658C44.4263 23.7956 46.5153 27.2851 47.0317 31.0014L47.1334 31.7525H46.3823C45.7486 31.7525 45.5843 31.7838 45.3261 31.9324C44.4733 32.4097 44.4967 33.6615 45.3652 34.0996C45.5999 34.2248 45.819 34.2561 46.3979 34.2561H47.1334L47.0317 35.0072C46.171 41.1802 41.1716 46.1796 34.9986 47.0402L34.2475 47.1419V46.4065C34.2475 45.8275 34.2162 45.6084 34.0911 45.3737C33.6529 44.5053 32.4011 44.4818 31.9239 45.3346C31.7752 45.5928 31.7439 45.7571 31.7439 46.3908V47.1419L31.2588 47.0715C28.4423 46.7038 25.9699 45.6084 23.7714 43.762C21.2052 41.6026 19.3275 38.1367 18.9285 34.8194L18.8659 34.2561H19.5935C20.1725 34.2561 20.3916 34.2248 20.6263 34.0996C21.5104 33.6536 21.5104 32.3549 20.6263 31.9089C20.3916 31.7838 20.1725 31.7525 19.5935 31.7525H18.8659L18.9285 31.1891C19.3275 27.8718 21.2052 24.4059 23.7714 22.2465C25.7118 20.6192 27.9572 19.5395 30.2965 19.0935C30.7738 18.9996 31.2823 18.9136 31.431 18.9057L31.7048 18.8823L31.7439 19.6647C31.7674 20.1967 31.83 20.5253 31.916 20.6974Z" fill="black"/>
<path d="M31.911 28.114C31.0504 28.3017 30.1428 28.8103 29.4778 29.4831C27.5218 31.4391 27.5062 34.5608 29.4387 36.4855C30.3932 37.4321 31.4416 37.9172 32.7169 37.9876C35.0014 38.1128 37.0982 36.6576 37.7945 34.4513C38.0371 33.6767 38.0371 32.331 37.7945 31.5564C37.0043 29.0685 34.4459 27.5663 31.911 28.114ZM34.1799 30.821C34.7041 31.1027 34.9466 31.353 35.2518 31.9398C35.4239 32.2762 35.4552 32.4405 35.4552 33.0039C35.463 33.6141 35.4395 33.708 35.197 34.1618C34.8997 34.7094 34.6493 34.9442 34.0626 35.2571C33.7261 35.4292 33.5618 35.4605 32.9985 35.4605C32.4352 35.4605 32.2709 35.4292 31.9345 35.2571C31.3477 34.9442 31.0973 34.7094 30.8 34.1618C30.5575 33.708 30.534 33.6141 30.5418 33.0039C30.5418 32.2215 30.7296 31.752 31.2382 31.2435C32.0205 30.4611 33.1863 30.2968 34.1799 30.821Z" fill="#FFBB38"/>
</svg>