<svg xmlns="http://www.w3.org/2000/svg" viewBox="0 0 827 558"><path d="M591.363 91.037c-39.041 3.714-173.715 38.227-250.911 64.301l-10.048 3.394-18.452-14.476c-43.323-33.985-59.069-43.511-83.055-50.244-7.907-2.219-27.442-3.978-26.783-2.411.212.507 3.599 7.216 7.525 14.91 17.364 34.025 28.315 67.594 32.97 101.066l1.713 12.319 6.428-6.943c6.507-7.029 19.813-18.638 29.47-25.714 7.92-5.804 8.61-6.038 4.78-1.622-1.925 2.219-6.248 7.2-9.608 11.069-23.13 26.641-41.063 56.613-53.737 89.814-4.578 11.993-4.582 12.011-5.618 30.426-1.046 18.589-1.342 33.074-.675 33.074.198 0 4.136-1.764 8.75-3.92 9.274-4.334 31.7-12.309 33.204-11.808.526.175-3.35 2.889-8.613 6.03-26.318 15.705-52.271 34.359-72.493 52.105-14.186 12.449-37.454 34.682-36.888 35.248 1.731 1.731 25.169-2.854 57.178-11.185 19.8-5.153 51.502-13.23 70.448-17.947l34.448-8.577 6.09 2.438c35.499 14.211 82.594 15.893 127.686 4.56 6.419-1.614 12.819-3.37 14.221-3.903 2.407-.915 2.61-.734 3.647 3.245 6.092 23.375 13.526 38.283 24.173 48.477l3.408 3.262 2.351-5.67c5.607-13.529 15.503-27.973 29.23-42.666l7.298-7.81 45.5 8.594c25.025 4.727 46.363 8.858 47.417 9.181 7.515 2.3-18.573-20.599-46.959-41.219l-2.843-2.065 12.943-7.383c7.118-4.06 25.767-15.009 41.442-24.331 39.98-23.777 43.534-25.576 49.261-24.93 5.705.643 9.366-1.258 22.677-11.771l9.437-7.455-11.437-.618c-23.763-1.285-71.157-.921-87.906.676-18.777 1.79-17.349 2.39-19.123-8.032-2.982-17.52 5.536-57.495 15.879-74.526 14.776-24.328 20.681-45.89 20.542-75-.077-15.989-3.213-39.216-5.62-41.624-.984-.984-10.767-1.155-19.347-.339m-3.863 23.804c-7.15 4.144-34.825 18.413-61.5 31.709-65.569 32.683-89.172 46.444-128.5 74.918-38.92 28.178-65.778 50.611-77.716 64.911l-2.403 2.879-5.109-6.892C300.531 266.53 290.96 249.271 284.893 233c-3.502-9.393-3.646-6.646-.368 7 5.201 21.649 11.769 37.489 21.052 50.769 2.433 3.48 4.421 6.868 4.418 7.529-.008 2.013-4.591 7.07-5.755 6.35-5.236-3.236-26.476-41.291-31.235-55.962-3.271-10.084-3.469-7.498-.456 5.952 5.196 23.191 11.406 38.867 20.878 52.702 5.272 7.701 5.358 8.166 2.234 12.071l-2.33 2.911-4.567-6.411c-11.698-16.422-20.263-32.422-25.882-48.351-3.482-9.873-3.651-7.499-.459 6.44 4.962 21.669 11.144 37.233 20.083 50.563 5.175 7.718 5.146 6.901.54 15.041l-3.453 6.104-26.047 14.313C215.238 381.072 179 403.638 179 406.442c0 .191 2.587-.46 5.75-1.448 47.262-14.76 73.385-22.562 105.407-31.478l16.656-4.638 5.344 2.985c7.803 4.36 24.013 9.673 34.343 11.256 34.47 5.284 93.323-5.677 129.207-24.064l11.793-6.043-11.5-.118c-14.984-.154-30.906-1.317-29-2.12.825-.347 8.25-1.823 16.5-3.28 53.381-9.425 76.784-16.066 90-25.538 2.829-2.028 2.858-2.113.5-1.495-28.708 7.536-54.925 7.982-82.76 1.411-11.956-2.822-11.252-3.176 3.533-1.772 25.974 2.466 74.935-5.565 85.351-14 2.588-2.095 2.019-9.467-1.021-13.221l-1.787-2.207-.632 3.16c-.348 1.737-1.388 4.312-2.311 5.722l-1.679 2.562-4.514-5.16-4.513-5.16-1.817 4.87c-.999 2.678-3.187 6.436-4.861 8.352-2.927 3.348-3.092 3.405-4.267 1.49-3.388-5.522-13.699-13.077-14.513-10.634-.889 2.667-9.136 12.846-12.451 15.368l-3.604 2.743-2.13-3.446c-1.171-1.896-4.397-5.111-7.168-7.145l-5.038-3.698-2.373 2.902c-1.305 1.596-2.389 3.219-2.409 3.606-.02.387-2.124 2.298-4.675 4.247l-4.639 3.542-2.298-4.96c-1.264-2.728-4.37-7.031-6.902-9.564l-4.604-4.604-3.377 2.965c-3.283 2.882-11.636 6.602-16.434 7.317-2.009.299-2.55-.256-3.561-3.647-.656-2.2-2.247-5.605-3.535-7.567l-2.341-3.567-5.585 2.233c-11.366 4.546-15.432 4.298-25.633-1.56-12.748-7.321-12.536-6.972-7.694-12.723 2.23-2.649 5.363-6.057 6.962-7.575l2.907-2.758 4.775 2.417 4.775 2.417 2.402-5.158c1.321-2.838 2.406-5.995 2.411-7.017.011-1.965.038-1.964 9.106.41 1.978.518 5.556 2.362 7.951 4.097l4.356 3.155 3.832-4.402c2.109-2.421 5.466-6.877 7.462-9.902 1.995-3.025 3.771-5.678 3.945-5.896.658-.823 11.634 3.99 16.085 7.052l4.636 3.19 4.481-4.923c2.464-2.708 5.669-6.784 7.121-9.058l2.641-4.135 3.79 1.843c2.085 1.014 5.818 3.714 8.298 5.999l4.507 4.155 4.843-4.771c2.664-2.623 5.367-6.034 6.007-7.579l1.163-2.808 3.865 1.971c2.126 1.085 5.431 3.347 7.345 5.027 4.637 4.071 9.786 1.025 14.439-8.54l1.896-3.898 5.969 5.693 5.968 5.693 5.194-5.492c7.782-8.228 11.901-18.52 6.86-17.141-3.097.848-21.808 3.924-49.716 8.174-38.282 5.83-69.416 12.632-86.534 18.907-10.117 3.709-5.766.752 11.613-7.891 20.352-10.123 41.498-15.622 84.887-22.077 19.251-2.865 36.582-5.948 42-7.474 7.797-2.196 22.601-32.237 28.054-56.932 2.474-11.201 4.233-33.068 3.233-40.186l-.787-5.598-13 7.536M417 173.059c-9.324 1.382-17.115 3.392-17.214 4.441-.151 1.601 5.261 4.297 12.183 6.07 6.036 1.547 6.579 1.539 9.467-.132 4.04-2.338 8.437-6.007 10.8-9.011l1.909-2.427-5.822.122c-3.203.067-8.298.489-11.323.937m207.5 133.615c-11.942.59-35.824 2.441-38.568 2.99-2.171.434-3.437 1.805-5.584 6.048-5.746 11.358-23.75 23.076-45.098 29.355-2.337.687-4.25 1.544-4.25 1.904 0 .78 12.023 7.608 12.941 7.349 1.473-.415 87.642-46.564 88.509-47.402.591-.571.402-.846-.5-.729-.797.104-4.15.322-7.45.485M502.628 364.54c-4.947 3.026-8.266 5.631-7.5 5.885.754.251 4.072.973 7.372 1.605 3.3.631 16.079 3.373 28.398 6.093 12.319 2.72 22.794 4.813 23.277 4.652 1.701-.567-39.14-23.793-41.675-23.7-.55.02-4.993 2.48-9.872 5.465m-31.52 26.816c.801 8.381 3.071 17.934 5.689 23.937l1.789 4.103 3.331-5.948c1.832-3.271 6.231-10.155 9.776-15.296 3.544-5.142 6.248-9.544 6.009-9.784-.557-.557-22.532-4.353-25.249-4.361-1.942-.007-2.011.373-1.345 7.349" fill-rule="evenodd"/></svg>